<svg width="17" height="22" viewBox="0 0 17 22" fill="none" xmlns="http://www.w3.org/2000/svg">
<path d="M16.3643 6.23047C16.8115 6.23047 17.1215 5.77066 16.9538 5.34901C16.3584 3.85193 14.9144 2.79297 13.2316 2.79297H12.4536C12.1635 1.23436 10.82 0 9.17594 0H7.82406C6.18107 0 4.83663 1.23355 4.54636 2.79297H3.76844C2.08561 2.79297 0.641552 3.85193 0.0461782 5.34901C-0.121497 5.77066 0.188548 6.23047 0.635722 6.23047H16.3643ZM7.82406 1.28906H9.17594C10.1011 1.28906 10.8865 1.92216 11.1509 2.79297H5.84914C6.11352 1.92216 6.89887 1.28906 7.82406 1.28906Z" fill="#17C873"/>
<path d="M2.3765 20.2037C2.44701 21.211 3.27998 22 4.27276 22H12.7271C13.7199 22 14.5528 21.211 14.6233 20.2037L15.5115 7.51953H1.4884L2.3765 20.2037ZM10.2328 10.9678C10.2503 10.6123 10.5484 10.3381 10.8974 10.3563C11.2469 10.3741 11.5161 10.6767 11.4986 11.0322L11.1606 17.9072C11.1437 18.2517 10.8637 18.5195 10.5283 18.5195C10.1634 18.5195 9.87683 18.2092 9.89482 17.8428L10.2328 10.9678ZM6.10252 10.3563C6.4516 10.3385 6.7496 10.6123 6.76705 10.9678L7.10502 17.8428C7.12302 18.2093 6.83625 18.5195 6.47158 18.5195C6.13615 18.5195 5.85614 18.2517 5.8392 17.9072L5.50123 11.0322C5.48378 10.6767 5.75298 10.3741 6.10252 10.3563Z" fill="#17C873"/>
</svg>
